<svg xmlns="http://www.w3.org/2000/svg" viewBox="0 0 100 25" width="400" height="100">
  <path d="M14.78 18.86 q0.14 0.32 -0.07 0.65 t-0.57 0.33 l-13.32 0 q-0.18 0 -0.34 -0.09 t-0.24 -0.23 q-0.22 -0.32 -0.06 -0.66 l0.62 -1.46 q0.08 -0.2 0.26 -0.32 t0.38 -0.12 l9.32 0 l-3.28 -7.84 l-2.68 6.4 q-0.08 0.2 -0.25 0.31 t-0.39 0.11 l-1.68 0 q-0.38 0 -0.6 -0.32 q-0.08 -0.14 -0.1 -0.32 t0.04 -0.34 l4.06 -9.52 q0.08 -0.2 0.25 -0.32 t0.39 -0.12 l1.92 0 q0.22 0 0.39 0.12 t0.25 0.32 Z M30.588 5 q0.28 0 0.49 0.21 t0.21 0.49 l0 13.4 q0 0.28 -0.21 0.49 t-0.49 0.21 l-1.76 0 q-0.36 0 -0.58 -0.28 l-9.78 -13.4 q-0.12 -0.16 -0.14 -0.36 t0.07 -0.38 t0.26 -0.28 t0.37 -0.1 l1.76 0 q0.16 0 0.32 0.07 t0.24 0.21 l7.02 9.54 l0 -9.12 q0 -0.28 0.2 -0.49 t0.5 -0.21 l1.52 0 Z M20.548 14.7 q0.28 0 0.49 0.2 t0.21 0.5 l0 3.7 q0 0.28 -0.21 0.49 t-0.49 0.21 l-1.52 0 q-0.28 0 -0.49 -0.21 t-0.21 -0.49 l0 -3.7 q0 -0.3 0.21 -0.5 t0.49 -0.2 l1.52 0 Z M38.516 10.94 q0.3 0 0.5 0.21 t0.2 0.51 l0 7.48 q0 0.28 -0.2 0.49 t-0.5 0.21 l-1.52 0 q-0.28 0 -0.49 -0.21 t-0.21 -0.49 l0 -7.48 q0 -0.3 0.21 -0.51 t0.49 -0.21 l1.52 0 Z M38.516 5 q0.3 0 0.5 0.21 t0.2 0.49 l0 3.7 q0 0.3 -0.2 0.51 t-0.5 0.21 l-1.52 0 q-0.28 0 -0.49 -0.21 t-0.21 -0.51 l0 -3.7 q0 -0.28 0.21 -0.49 t0.49 -0.21 l1.52 0 Z M46.444 5 q0.28 0 0.49 0.21 t0.21 0.49 l0 13.4 q0 0.28 -0.21 0.49 t-0.49 0.21 l-1.52 0 q-0.28 0 -0.49 -0.21 t-0.21 -0.49 l0 -13.4 q0 -0.28 0.21 -0.49 t0.49 -0.21 l1.52 0 Z M53.744 16.94 q0.3 0 0.5 0.21 t0.2 0.49 l0 1.46 q0 0.28 -0.2 0.49 t-0.5 0.21 l-4.66 0 q-0.3 0 -0.5 -0.21 t-0.2 -0.49 l0 -1.46 q0 -0.28 0.2 -0.49 t0.5 -0.21 l4.66 0 Z M71.312 18.86 q0.14 0.32 -0.07 0.65 t-0.57 0.33 l-13.32 0 q-0.18 0 -0.34 -0.09 t-0.24 -0.23 q-0.22 -0.32 -0.06 -0.66 l0.62 -1.46 q0.08 -0.2 0.26 -0.32 t0.38 -0.12 l9.32 0 l-3.28 -7.84 l-2.68 6.4 q-0.08 0.2 -0.25 0.31 t-0.39 0.11 l-1.68 0 q-0.38 0 -0.6 -0.32 q-0.08 -0.14 -0.1 -0.32 t0.04 -0.34 l4.06 -9.52 q0.08 -0.2 0.25 -0.32 t0.39 -0.12 l1.92 0 q0.22 0 0.39 0.12 t0.25 0.32 Z M87.46 5.38 q0.1 0.18 0.09 0.38 t-0.13 0.36 l-5.54 8 l0 5.14 q0 0.28 -0.21 0.49 t-0.49 0.21 l-1.54 0 q-0.3 0 -0.51 -0.21 t-0.21 -0.49 l0 -5.86 q0 -0.2 0.14 -0.4 l5.34 -7.7 q0.1 -0.14 0.25 -0.22 t0.33 -0.08 l1.86 0 q0.2 0 0.37 0.1 t0.25 0.28 Z M79.04 9.78 q-0.08 0.18 -0.25 0.28 t-0.37 0.1 l-1.86 0 q-0.36 0 -0.6 -0.3 l-2.6 -3.74 q-0.1 -0.16 -0.11 -0.36 t0.07 -0.38 t0.25 -0.28 t0.37 -0.1 l1.88 0 q0.34 0 0.58 0.3 l2.6 3.74 q0.1 0.16 0.11 0.36 t-0.07 0.38 Z" fill="#fff"/>
</svg>